<svg xmlns="http://www.w3.org/2000/svg" xmlns:xlink="http://www.w3.org/1999/xlink" width="1000" viewBox="0 0 750 250.499992" height="334" preserveAspectRatio="xMidYMid meet"><defs><g></g></defs><g fill="#df000d" fill-opacity="1"><g transform="translate(151.850707, 228.638655)"><g><path d="M 128.46875 0 L 82.34375 -81.453125 L 62.578125 -81.453125 L 62.578125 0 L 20.65625 0 L 20.65625 -209.015625 L 99.125 -209.015625 C 115.289062 -209.015625 129.0625 -206.171875 140.4375 -200.484375 C 151.820312 -194.796875 160.359375 -187.109375 166.046875 -177.421875 C 171.734375 -167.742188 174.578125 -156.914062 174.578125 -144.9375 C 174.578125 -131.15625 170.582031 -118.722656 162.59375 -107.640625 C 154.613281 -96.566406 142.738281 -88.9375 126.96875 -84.75 L 176.984375 0 Z M 62.578125 -112.890625 L 97.625 -112.890625 C 109 -112.890625 117.476562 -115.632812 123.0625 -121.125 C 128.65625 -126.613281 131.453125 -134.25 131.453125 -144.03125 C 131.453125 -153.613281 128.65625 -161.050781 123.0625 -166.34375 C 117.476562 -171.632812 109 -174.28125 97.625 -174.28125 L 62.578125 -174.28125 Z M 62.578125 -112.890625 "></path></g></g></g><g fill="#df000d" fill-opacity="1"><g transform="translate(358.754985, 228.638655)"><g><path d="M 62.578125 -175.1875 L 62.578125 -122.78125 L 132.953125 -122.78125 L 132.953125 -89.53125 L 62.578125 -89.53125 L 62.578125 -34.140625 L 141.9375 -34.140625 L 141.9375 0 L 20.65625 0 L 20.65625 -209.3125 L 141.9375 -209.3125 L 141.9375 -175.1875 Z M 62.578125 -175.1875 "></path></g></g></g><g fill="#df000d" fill-opacity="1"><g transform="translate(533.021865, 228.638655)"><g><path d="M 93.734375 -209.015625 C 115.691406 -209.015625 135.003906 -204.722656 151.671875 -196.140625 C 168.335938 -187.554688 181.210938 -175.328125 190.296875 -159.453125 C 199.378906 -143.585938 203.921875 -125.171875 203.921875 -104.203125 C 203.921875 -83.242188 199.378906 -64.925781 190.296875 -49.25 C 181.210938 -33.582031 168.335938 -21.457031 151.671875 -12.875 C 135.003906 -4.289062 115.691406 0 93.734375 0 L 20.65625 0 L 20.65625 -209.015625 Z M 92.234375 -35.640625 C 114.191406 -35.640625 131.160156 -41.625 143.140625 -53.59375 C 155.117188 -65.570312 161.109375 -82.441406 161.109375 -104.203125 C 161.109375 -125.960938 155.117188 -142.984375 143.140625 -155.265625 C 131.160156 -167.546875 114.191406 -173.6875 92.234375 -173.6875 L 62.578125 -173.6875 L 62.578125 -35.640625 Z M 92.234375 -35.640625 "></path></g></g></g><g fill="#838383" fill-opacity="1"><g transform="translate(12.191567, 230.88573)"><g><path d="M 33.203125 -52.0625 C 39.734375 -52.0625 44.910156 -50.253906 48.734375 -46.640625 C 52.554688 -43.035156 54.46875 -38.1875 54.46875 -32.09375 C 54.46875 -30.113281 54.3125 -28.351562 54 -26.8125 C 53.632812 -24.96875 53.234375 -23.363281 52.796875 -22 L 15.34375 -22 C 15.28125 -21.570312 15.25 -20.957031 15.25 -20.15625 C 15.25 -16.945312 16.1875 -14.429688 18.0625 -12.609375 C 19.945312 -10.796875 22.429688 -9.890625 25.515625 -9.890625 C 28.109375 -9.890625 30.34375 -10.457031 32.21875 -11.59375 C 34.101562 -12.738281 35.628906 -14.238281 36.796875 -16.09375 L 50.765625 -16.09375 C 48.484375 -11.15625 44.953125 -7.097656 40.171875 -3.921875 C 35.398438 -0.753906 29.992188 0.828125 23.953125 0.828125 C 17.410156 0.828125 12.164062 -1.019531 8.21875 -4.71875 C 4.28125 -8.414062 2.3125 -13.4375 2.3125 -19.78125 C 2.3125 -21.632812 2.492188 -23.578125 2.859375 -25.609375 C 3.785156 -30.910156 5.679688 -35.566406 8.546875 -39.578125 C 11.421875 -43.585938 14.984375 -46.671875 19.234375 -48.828125 C 23.484375 -50.984375 28.140625 -52.0625 33.203125 -52.0625 Z M 41.15625 -29.875 C 41.269531 -30.851562 41.328125 -31.5625 41.328125 -32 C 41.328125 -34.957031 40.367188 -37.265625 38.453125 -38.921875 C 36.546875 -40.585938 34.054688 -41.421875 30.984375 -41.421875 C 27.710938 -41.421875 24.78125 -40.390625 22.1875 -38.328125 C 19.601562 -36.265625 17.785156 -33.445312 16.734375 -29.875 Z M 41.15625 -29.875 "></path></g></g></g><g fill="#838383" fill-opacity="1"><g transform="translate(80.154817, 230.88573)"><g><path d="M 26.71875 -68.421875 L 14.609375 0 L 1.578125 0 L 13.6875 -68.421875 Z M 26.71875 -68.421875 "></path></g></g></g></svg>